# AST/ASF file generated using VICON BodyLanguage
# -----------------------------------------------
:version 1.10
:name VICON
:units
  mass 1.0
  length 0.45
  angle deg
:documentation
   .ast/.asf automatically generated from VICON data using
   VICON BodyBuilder and BodyLanguage model FoxedUp or BRILLIANT.MOD
:root
   order TX TY TZ RX RY RZ
   axis XYZ
   position 0 0 0  
   orientation 0 0 0 
:bonedata
  begin
     id 1 
     name lhipjoint
     direction 0.573633 -0.743009 0.344793 
     length 2.46257 
     axis 0 0 0  XYZ
  end
  begin
     id 2 
     name lfemur
     direction 0.34202 -0.939693 0  
     length 7.3842  
     axis 0 0 20  XYZ
    dof rx ry rz
    limits (-160.0 20.0)
           (-70.0 70.0)
           (-60.0 70.0)
  end
  begin
     id 3 
     name ltibia
     direction 0.34202 -0.939693 0   
     length 7.50407   
     axis 0 0 20   XYZ
    dof rx
    limits (-10.0 170.0)
  end
  begin
     id 4 
     name lfoot
     direction 0.110749 -0.304281 0.946123   
     length 1.95925   
     axis -90 7.62852e-016 20   XYZ
    dof rx rz
    limits (-45.0 90.0)
           (-70.0 20.0)
  end
  begin
     id 5 
     name ltoes
     direction 1.53554e-011 -4.21843e-011 1   
     length 0.978318   
     axis -90 7.62852e-016 20   XYZ
    dof rx
    limits (-90.0 20.0)
  end
  begin
     id 6 
     name rhipjoint
     direction -0.488109 -0.791693 0.367385   
     length 2.31113  
     axis 0 0 0  XYZ 
  end
  begin
     id 7 
     name rfemur
     direction -0.34202 -0.939693 0   
     length 7.40965   
     axis 0 0 -20   XYZ
    dof rx ry rz
    limits (-160.0 20.0)
           (-70.0 70.0)
           (-70.0 60.0)
  end
  begin
     id 8 
     name rtibia
     direction -0.34202 -0.939693 0   
     length 7.55548   
     axis 0 0 -20   XYZ
    dof rx
    limits (-10.0 170.0)
 end
 begin
     id 9 
     name rfoot
     direction -0.127594 -0.350561 0.927808   
     length 2.07199  
     axis -90 -7.62852e-016 -20   XYZ
    dof rx rz
    limits (-45.0 90.0)
           (-20.0 70.0)
  end
  begin
     id 10 
     name rtoes
     direction -1.53542e-011 -4.21909e-011 1   
     length 1.02667   
     axis -90 -7.62852e-016 -20   XYZ
    dof rx
    limits (-90.0 20.0)
  end
  begin
     id 11 
     name lowerback
     direction -0.0103342 0.997298 -0.0727278   
     length 2.02836   
     axis 0 0 0   XYZ
    dof rx ry rz
    limits (-20.0 45.0)
           (-30.0 30.0)
           (-30.0 30.0)
  end
  begin
     id 12 
     name upperback
     direction 0.0171146 0.999786 -0.011606   
     length 2.03179   
     axis 0 0 0   XYZ
    dof rx ry rz
    limits (-20.0 45.0)
           (-30.0 30.0)
           (-30.0 30.0)
  end
  begin
     id 13 
     name thorax
     direction 0.0216927 0.999513 0.0224343   
     length 2.03882   
     axis 0 0 0   XYZ
    dof rx ry rz
    limits (-20.0 45.0)
           (-30.0 30.0)
           (-30.0 30.0)
  end
  begin
     id 14 
     name lowerneck
     direction 0.000989287 0.993907 0.110221   
     length 1.75428   
     axis 0 0 0   XYZ
    dof rx ry rz
    limits (-20.0 45.0)
           (-30.0 30.0)
           (-30.0 30.0)
  end
  begin
     id 15 
     name upperneck
     direction -0.0172474 0.994813 -0.100253   
     length 1.77058   
     axis 0 0 0   XYZ
    dof rx ry rz
    limits (-20.0 45.0)
           (-30.0 30.0)
           (-30.0 30.0)
  end
  begin
     id 16
     name head
     direction -0.00486455 0.99894 -0.0457663  
     length 1.77427  
     axis 0 0 0   XYZ
    dof rx ry rz
    limits (-20.0 45.0)
           (-30.0 30.0)
           (-30.0 30.0)
  end
  begin
     id 17 
     name lclavicle
     direction 0.927314 0.333734 -0.169441  
     length 3.97584  
     axis 0 0 0   XYZ
    dof ry rz
    limits (-20.0 10.0)
           (0.0 20.0)
  end
  begin
     id 18 
     name lhumerus
     direction 1 -4.48965e-011 -3.25313e-028   
     length 4.76468   
     axis 180 -30 -90   XYZ
    dof rx ry rz
    limits (-60.0 90.0)
           (-90.0 90.0)
           (-90.0 90.0)
  end
  begin
     id 19
     name lradius
     direction 1 -4.48969e-011 -2.8465e-028   
     length 3.52712   
     axis -180 -30 -90   XYZ
    dof rx
    limits (-10.0 170.0)
  end
  begin
     id 20
     name lwrist
     direction 1 -4.4896e-011 -7.78665e-028   
     length 1.76356   
     axis 1.91374e-015 90 90   XYZ
    dof ry
    limits (-180.0 0.0)
 end
  begin
     id 21 
     name lhand
     direction 1 -4.48959e-011 -1.55733e-027   
     length 0.859564   
     axis 9.9371e-016 90 90   XYZ
    dof rx rz
    limits (-90.0 90.0)
           (-45.0 45.0)
  end
  begin
     id 22 
     name lfingers
     direction 1 -4.48965e-011 -3.11466e-027   
     length 0.693002   
     axis 1.98742e-015 90 90   XYZ
    dof rx
    limits (0.0 90.0)
  end
  begin
     id 23
     name lthumb
     direction 0.707107 -6.34948e-011 0.707107   
     length 0.995017   
     axis -90 45 2.85299e-015   XYZ
    dof rx rz
    limits (-45.0 45.0)
           (-45.0 45.0)
  end
  begin
     id 24 
     name rclavicle
     direction -0.899388 0.348209 -0.264294   
     length 3.68366  
     axis 0 0 0   XYZ 
    dof ry rz
    limits (-10.0 20.0)
           (-20.0 0.0)
  end
  begin
     id 25 
     name rhumerus
     direction -1 -4.48965e-011 -3.01536e-027  
     length 4.90577   
     axis 180 30 90   XYZ
    dof rx ry rz
    limits (-90.0 60.0)
           (-90.0 90.0)
           (-90.0 90.0)
  end
  begin
     id 26 
     name rradius
     direction -1 -4.48966e-011 3.93291e-027   
     length 3.42692   
     axis -180 30 90   XYZ
    dof rx
    limits (-10.0 170.0)
  end
  begin
     id 27 
     name rwrist
     direction -1 -4.48969e-011 -7.78665e-028   
     length 1.71346   
     axis 1.91374e-015 -90 -90   XYZ
    dof ry
    limits (-180.0 0.0)
  end
  begin
     id 28
     name rhand
     direction -1 -4.48967e-011 -1.55733e-027   
     length 0.740957   
     axis 9.9371e-016 -90 -90   XYZ
    dof rx rz
    limits (-90.0 90.0)
           (-45.0 45.0)
  end
  begin
     id 29
     name rfingers
     direction -1 -4.48949e-011 -3.11466e-027   
     length 0.597378   
     axis 1.98742e-015 -90 -90   XYZ
    dof rx
    limits (0.0 90.0)
  end
  begin
     id 30
     name rthumb
     direction -0.707107 -6.34931e-011 0.707107   
     length 0.857719   
     axis -90 -45 -2.85299e-015   XYZ
    dof rx rz
    limits (-45.0 45.0)
           (-45.0 45.0)
  end
:hierarchy
  begin
    root lhipjoint rhipjoint lowerback
    lhipjoint lfemur
    lfemur ltibia
    ltibia lfoot
    lfoot ltoes
    rhipjoint rfemur
    rfemur rtibia
    rtibia rfoot
    rfoot rtoes
    lowerback upperback
    upperback thorax
    thorax lowerneck lclavicle rclavicle
    lowerneck upperneck
    upperneck head
    lclavicle lhumerus
    lhumerus lradius
    lradius lwrist
    lwrist lhand lthumb
    lhand lfingers
    rclavicle rhumerus
    rhumerus rradius
    rradius rwrist
    rwrist rhand rthumb
    rhand rfingers
  end

#!OML:ASF E:\I on waltz\AllaLogoMonkeySwing\Project 1\Capture day 1\Session 1\Subject1.ASF
:FULLY-SPECIFIED
:DEGREES
16
root -15.6183 18.096 -26.9243 5.50056 40.9809 0.180805
lowerback 9.41267 -0.846255 -6.52368
upperback 0.608439 -1.67102 2.77176
thorax -4.37931 -0.671015 6.82975
lowerneck -8.58128 -0.896812 -0.837596
upperneck 9.95465 -0.874424 -1.82955
head 4.38183 -0.562378 -0.480028
rclavicle 5.61567e-015 -2.14687e-014
rhumerus -23.3685 0.451607 -86.1385
rradius 35.4587
rwrist -1.2391
rhand -3.18825 -34.2509
rfingers 7.12502
rthumb 22.5333 -62.956
lclavicle 5.61567e-015 -2.14687e-014
lhumerus -30.4387 23.8766 80.8447
lradius 44.7395
lwrist -25.458
lhand 2.14287 -26.0166
lfingers 7.12502
lthumb 27.6412 1.97276
rfemur -22.0253 -6.37241 19.1641
rtibia 35.5536
rfoot -16.193 -9.78893
rtoes 17.2233
lfemur -0.848231 1.05675 -21.347
ltibia 8.6808
lfoot -13.9429 -3.19994
ltoes -22.2396
17
root -15.6631 18.0936 -26.942 5.50313 41.2968 0.182375
lowerback 9.27508 -0.899418 -6.46243
upperback 0.594964 -1.72649 2.79546
thorax -4.30825 -0.702328 6.82161
lowerneck -8.25495 -0.947404 -1.00572
upperneck 9.45953 -0.946475 -1.69595
head 4.63011 -0.587673 -0.458044
rclavicle 2.94201e-014 1.43125e-014
rhumerus -23.3566 0.705036 -86.3901
rradius 35.7418
rwrist -1.74991
rhand -3.48611 -34.1191
rfingers 7.12502
rthumb 22.2474 -62.8586
lclavicle 2.94201e-014 1.43125e-014
lhumerus -31.1691 24.4686 80.5225
lradius 43.952
lwrist -27.1386
lhand 2.88538 -25.9527
lfingers 7.12502
lthumb 28.351 1.92077
rfemur -21.5443 -6.84459 19.1765
rtibia 36.9903
rfoot -16.2615 -10.3505
rtoes 17.6182
lfemur -1.07321 0.856486 -21.268
ltibia 8.72917
lfoot -14.1014 -3.20722
ltoes -23.6767
18
root -15.6816 18.1062 -26.9426 4.9947 41.0008 0.21783
lowerback 9.34556 -0.734428 -6.38496
upperback 0.7836 -1.50101 2.73767
thorax -4.18935 -0.602365 6.68586
lowerneck -8.04318 -0.93173 -1.07868
upperneck 9.49795 -0.914931 -1.72563
head 4.60109 -0.575433 -0.451572
rclavicle 4.33848e-014 7.55382e-015
rhumerus -23.3882 0.721645 -86.614
rradius 35.8858
rwrist -1.91236
rhand -3.71769 -34.0575
rfingers 7.12502
rthumb 22.025 -62.8234
lclavicle 4.33848e-014 7.55382e-015
lhumerus -31.8968 24.9157 80.154
lradius 42.9797
lwrist -28.2093
lhand 3.47216 -25.687
lfingers 7.12502
lthumb 28.9116 2.09187
rfemur -20.1061 -6.90634 19.0671
rtibia 37.842
rfoot -15.9959 -10.4227
rtoes 17.7256
lfemur -0.298536 0.815216 -21.3066
ltibia 8.28307
lfoot -14.2003 -2.83443
ltoes -24.7469
19
root -15.7199 18.1074 -26.9486 5.11701 41.2955 0.427841
lowerback 9.20146 -0.747825 -6.413
upperback 0.76294 -1.51621 2.69278
thorax -4.1285 -0.611974 6.65116
lowerneck -8.06617 -0.859321 -1.01892
upperneck 9.73037 -0.799082 -1.90488
head 4.69078 -0.527084 -0.517867
rclavicle 2.23136e-014 -2.18663e-014
rhumerus -23.5079 0.515257 -86.7368
rradius 36.0138
rwrist -1.85116
rhand -3.92736 -34.0863
rfingers 7.12502
rthumb 21.8237 -62.8757
lclavicle 2.23136e-014 -2.18663e-014
lhumerus -32.4754 25.5502 79.7928
lradius 41.4883
lwrist -29.1907
lhand 3.68398 -25.5292
lfingers 7.12502
lthumb 29.114 2.21493
rfemur -19.1382 -7.35237 18.8668
rtibia 38.3434
rfoot -15.3942 -10.6234
rtoes 18.5375
lfemur -0.459195 0.725091 -21.379
ltibia 8.39443
lfoot -13.9186 -3.143
ltoes -22.3807
20
root -15.7571 18.105 -26.9496 5.31529 41.6756 0.763176
lowerback 9.09259 -0.78063 -6.53193
upperback 0.714281 -1.56986 2.63265
thorax -4.10871 -0.636718 6.65883
lowerneck -7.8491 -0.967506 -1.08202
upperneck 9.64502 -0.960375 -1.73992
head 4.6148 -0.598363 -0.458419
rclavicle -6.93758e-014 1.15295e-014
rhumerus -23.7648 0.322352 -86.7984
rradius 36.0904
rwrist -1.85982
rhand -4.13632 -34.0027
rfingers 7.12502
rthumb 21.623 -62.8154
lclavicle -6.93758e-014 1.15295e-014
lhumerus -33.1379 26.539 79.2281
lradius 39.7985
lwrist -30.9031
lhand 3.99918 -25.4602
lfingers 7.12502
lthumb 29.4149 2.23144
rfemur -17.9139 -7.90165 18.4916
rtibia 38.2986
rfoot -14.726 -10.9884
rtoes 21.379
lfemur -0.638121 0.668137 -21.5676
ltibia 8.56941
lfoot -13.6743 -3.46468
ltoes -21.0454
21
root -15.7918 18.0975 -26.9468 5.49979 42.0254 1.0204
lowerback 8.91895 -0.79932 -6.55839
upperback 0.639316 -1.59284 2.5523
thorax -4.08827 -0.647399 6.58635
lowerneck -7.51347 -0.974658 -1.30637
upperneck 9.60092 -0.98405 -1.42019
head 4.53255 -0.599835 -0.308323
rclavicle -2.27111e-014 1.27222e-014
rhumerus -24.1144 0.0331692 -86.8867
rradius 35.9754
rwrist -1.83148
rhand -4.42608 -33.9044
rfingers 7.12502
rthumb 21.3448 -62.7489
lclavicle -2.27111e-014 1.27222e-014
lhumerus -33.9106 27.6417 78.4176
lradius 38.0442
lwrist -32.6292
lhand 4.35482 -25.3147
lfingers 7.12502
lthumb 29.7544 2.31675
rfemur -16.5534 -8.63104 18.2348
rtibia 37.5326
rfoot -15.2765 -10.6591
rtoes 16.5601
lfemur -0.870431 0.44832 -21.7175
ltibia 8.79475
lfoot -14.0368 -3.46114
ltoes -22.0621
22
root -15.8231 18.0882 -26.9392 5.51616 42.2687 1.00729
lowerback 8.65487 -0.788464 -6.40231
upperback 0.602274 -1.54916 2.53235
thorax -3.99085 -0.631947 6.4621
lowerneck -7.55548 -0.941336 -1.10738
upperneck 9.81884 -0.939896 -1.58155
head 4.61891 -0.580288 -0.397799
rclavicle -4.22914e-014 1.70955e-014
rhumerus -24.4775 -0.205746 -86.9674
rradius 35.7188
rwrist -1.51337
rhand -4.68589 -33.9348
rfingers 7.12502
rthumb 21.0952 -62.8073
lclavicle -4.22914e-014 1.70955e-014
lhumerus -34.7314 29.2979 77.3347
lradius 36.1607
lwrist -34.6505
lhand 4.76863 -25.1921
lfingers 7.12502
lthumb 30.1493 2.36801
rfemur -14.8546 -8.28211 17.9957
rtibia 34.5722
rfoot -15.1269 -10.3199
rtoes 18.1361
lfemur -1.06456 0.0933822 -21.6004
ltibia 9.01117
lfoot -14.3722 -3.30185
ltoes -21.8697
23
root -15.8502 18.0846 -26.9274 5.26329 42.4663 0.719659
lowerback 8.43816 -0.777514 -6.05894
upperback 0.621215 -1.4859 2.59448
thorax -3.86628 -0.611479 6.3165
lowerneck -7.67136 -0.907585 -0.915253
upperneck 10.0733 -0.887922 -1.7809
head 4.7346 -0.559661 -0.499778
rclavicle 1.26377e-013 -7.95139e-015
rhumerus -24.6959 -0.573724 -86.8271
rradius 35.3266
rwrist -1.79608
rhand -4.27602 -33.678
rfingers 7.12502
rthumb 21.4889 -62.506
lclavicle 1.26377e-013 -7.95139e-015
lhumerus -35.6058 31.3182 76.1383
lradius 34.2038
lwrist -36.4487
lhand 4.86434 -24.8488
lfingers 7.12502
lthumb 30.2406 2.69469
rfemur -12.9707 -7.85793 18.0553
rtibia 31.148
rfoot -15.5605 -9.98874
rtoes 18.9219
lfemur -1.12179 -0.215013 -21.2215
ltibia 9.19946
lfoot -14.3664 -3.15875
ltoes -21.3226
24
root -15.8753 18.0879 -26.9201 4.96285 42.5235 0.378917
lowerback 8.29338 -0.702476 -5.62873
upperback 0.617961 -1.33478 2.66057
thorax -3.81965 -0.54459 6.11904
lowerneck -7.20101 -1.0749 -1.23865
upperneck 9.86917 -1.09978 -1.65204
head 4.56471 -0.665737 -0.405791
rclavicle 6.15239e-014 2.50469e-014
rhumerus -24.8939 -0.885204 -86.6275
rradius 34.6132
rwrist -1.90178
rhand -4.43272 -33.5788
rfingers 7.12502
rthumb 21.3384 -62.4239
lclavicle 6.15239e-014 2.50469e-014
lhumerus -36.685 33.4933 74.6915
lradius 32.341
lwrist -38.4034
lhand 5.0173 -24.4803
lfingers 7.12502
lthumb 30.3865 3.03628
rfemur -11.3329 -7.66982 18.2724
rtibia 28.2495
rfoot -16.4392 -9.33071
rtoes 18.1991
lfemur -1.21613 -0.410577 -20.8411
ltibia 9.43136
lfoot -14.084 -2.95852
ltoes -21.0071
25
root -15.9 18.0945 -26.9163 4.65758 42.3535 -0.0424998
lowerback 8.16418 -0.563793 -5.12619
upperback 0.576868 -1.09503 2.7223
thorax -3.83334 -0.4316 5.86759
lowerneck -6.77209 -1.16804 -1.41238
upperneck 9.72919 -1.2224 -1.58744
head 4.42759 -0.726118 -0.35553
rclavicle 7.35503e-015 -4.77083e-015
rhumerus -25.0617 -1.31904 -86.3828
rradius 33.6161
rwrist -1.70584
rhand -4.69713 -33.4031
rfingers 7.12502
rthumb 21.0844 -62.2767
lclavicle 7.35503e-015 -4.77083e-015
lhumerus -38.1925 35.9681 72.7117
lradius 30.7362
lwrist -41.0712
lhand 5.42084 -24.1919
lfingers 7.12502
lthumb 30.7713 3.25289
rfemur -10.0085 -7.49992 18.6613
rtibia 25.8851
rfoot -17.158 -8.61414
rtoes 17.8371
lfemur -1.36757 -0.540513 -20.4209
ltibia 9.64163
lfoot -13.8313 -2.55315
ltoes -21.0794
26
root -15.9231 18.1024 -26.9141 4.29552 42.0315 -0.615579
lowerback 8.038 -0.4257 -4.52275
upperback 0.51557 -0.847365 2.80433
thorax -3.86823 -0.315235 5.5798
lowerneck -6.44491 -1.21792 -1.48611
upperneck 9.66535 -1.297 -1.509
head 4.33907 -0.75958 -0.316985
rclavicle 6.47044e-014 -1.39149e-014
rhumerus -25.1442 -1.84628 -86.0898
rradius 32.3405
rwrist -1.07589
rhand -4.58606 -33.2273
rfingers 7.12502
rthumb 21.1911 -62.0891
lclavicle 6.47044e-014 -1.39149e-014
lhumerus -40.2195 38.6962 70.163
lradius 29.5478
lwrist -44.392
lhand 6.29472 -23.9642
lfingers 7.12502
lthumb 31.6041 3.32037
rfemur -8.77364 -7.23737 19.2303
rtibia 23.432
rfoot -17.3504 -8.10158
rtoes 18.2532
lfemur -1.52565 -0.685157 -19.8828
ltibia 9.83825
lfoot -14.0252 -1.96378
ltoes -21.469
27
root -15.9463 18.1117 -26.9158 3.98114 41.5495 -1.20259
lowerback 7.90989 -0.273866 -3.98958
upperback 0.439059 -0.585985 2.94966
thorax -3.91376 -0.189952 5.39836
lowerneck -6.07886 -1.21203 -1.71375
upperneck 9.56296 -1.28749 -1.38438
head 4.23109 -0.754663 -0.230332
rclavicle 3.97569e-014 -3.18055e-015
rhumerus -25.173 -2.42878 -85.6768
rradius 30.9195
rwrist -0.314957
rhand -4.11169 -33.3296
rfingers 7.12502
rthumb 21.6467 -62.1396
lclavicle 3.97569e-014 -3.18055e-015
lhumerus -42.6953 41.4767 67.3265
lradius 28.7323
lwrist -47.6566
lhand 7.38251 -23.788
lfingers 7.12502
lthumb 32.6397 3.28752
rfemur -7.74836 -6.8944 19.8668
rtibia 21.1695
rfoot -17.3346 -7.49877
rtoes 18.3491
lfemur -1.75521 -0.961161 -19.3654
ltibia 10.1142
lfoot -14.2869 -1.15627
ltoes -21.207
